<svg width="27" height="27" viewBox="0 0 27 27" fill="none" xmlns="http://www.w3.org/2000/svg">
<rect width="27" height="27" rx="13.5" fill="#EAECF0"/>
<g clip-path="url(#clip0_2_7592)">
<path d="M19.25 10.5625H17.3105L16.0302 9.49562C15.8896 9.37844 15.6991 9.3125 15.5 9.3125H12.5C12.3009 9.3125 12.1104 9.37844 11.9698 9.49562L10.6895 10.5625H8.75C8.33544 10.5625 8 10.842 8 11.1875V18.0625C8 18.408 8.33544 18.6875 8.75 18.6875H19.25C19.6646 18.6875 20 18.408 20 18.0625V11.1875C20 10.842 19.6646 10.5625 19.25 10.5625ZM14 16.8125C12.3432 16.8125 11 15.6931 11 14.3125C11 12.9319 12.3432 11.8125 14 11.8125C15.6568 11.8125 17 12.9319 17 14.3125C17 15.6931 15.6568 16.8125 14 16.8125Z" fill="#98A2B3"/>
<path d="M14 15.5625C14.8284 15.5625 15.5 15.0029 15.5 14.3125C15.5 13.6221 14.8284 13.0625 14 13.0625C13.1716 13.0625 12.5 13.6221 12.5 14.3125C12.5 15.0029 13.1716 15.5625 14 15.5625Z" fill="#98A2B3"/>
</g>
<defs>
<clipPath id="clip0_2_7592">
<rect width="12" height="10" fill="white" transform="translate(8 9)"/>
</clipPath>
</defs>
</svg>
