<svg width="286" height="57" viewBox="0 0 286 57" fill="none" xmlns="http://www.w3.org/2000/svg">
<g filter="url(#filter0_f_264_22665)">
<path d="M214.077 36.3483L141.712 6.25514L388.498 -17.0757L389.923 14.6415L380.029 54.6824L334.757 30.9266L214.077 36.3483Z" fill="#F8ECFE"/>
<path d="M214.077 36.3483L141.712 6.25514L388.498 -17.0757L389.923 14.6415L380.029 54.6824L334.757 30.9266L214.077 36.3483Z" stroke="#F8ECFE" stroke-width="4"/>
</g>
<g filter="url(#filter1_f_264_22665)">
<path d="M368.67 -17.455L177.81 2.90749C176.461 5.53727 229.456 9.03506 270.558 5.45759C311.663 1.88003 368.145 -13.4143 368.67 -17.455Z" fill="url(#paint0_linear_264_22665)"/>
</g>
<path d="M424.212 -9.30325L219.646 21.3672C217.656 20.3609 272.454 7.34169 316.331 0.339233C360.212 -6.66375 422.777 -11.1796 424.212 -9.30325Z" fill="url(#paint1_linear_264_22665)"/>
<path d="M193.147 22.7538C193.478 22.674 193.687 22.3867 193.645 22.0617C193.315 19.1557 193.624 18.6656 196.488 17.6485C196.818 17.5288 197.007 17.2061 196.922 16.9048C196.837 16.5992 196.509 16.4101 196.156 16.446C193.12 16.7805 192.665 16.5416 191.349 13.8781C191.202 13.5827 190.878 13.424 190.552 13.5027C190.216 13.5836 190.012 13.8697 190.045 14.197C190.383 17.0966 190.074 17.5867 187.214 18.6027C186.877 18.7287 186.69 19.042 186.777 19.3517C186.861 19.6531 187.18 19.8444 187.542 19.8063C190.585 19.479 191.034 19.7149 192.341 22.3806C192.498 22.678 192.826 22.8313 193.147 22.7538Z" fill="white"/>
<path d="M213.341 14.6707C213.504 14.6313 213.603 14.475 213.576 14.2938C213.362 12.6749 213.507 12.4074 214.912 11.8857C215.074 11.8242 215.162 11.6479 215.115 11.4792C215.067 11.3082 214.901 11.1982 214.726 11.2129C213.223 11.3529 212.993 11.2133 212.292 9.71418C212.213 9.54794 212.05 9.45492 211.889 9.49369C211.723 9.53357 211.627 9.6894 211.649 9.87164C211.868 11.4871 211.723 11.7546 210.319 12.2757C210.154 12.3407 210.066 12.5118 210.115 12.6852C210.162 12.8538 210.324 12.9649 210.503 12.9491C212.01 12.8133 212.237 12.9511 212.934 14.4513C213.017 14.6188 213.183 14.7089 213.341 14.6707Z" fill="white" fill-opacity="0.7"/>
<path d="M14.3942 26.2914C14.5889 26.2802 14.732 25.9221 14.7173 25.4913C14.7025 25.0609 14.5355 24.7206 14.3408 24.7318C14.1479 24.7429 14.0029 25.1011 14.0176 25.5315C14.0324 25.9623 14.2013 26.3024 14.3942 26.2914Z" fill="white"/>
<path d="M42.1782 18.9643C42.373 18.9531 42.5161 18.595 42.5013 18.1642C42.4866 17.7338 42.3196 17.3935 42.1248 17.4047C41.932 17.4158 41.787 17.774 41.8017 18.2044C41.8165 18.6352 41.9854 18.9754 42.1782 18.9643Z" fill="white"/>
<path d="M41.8385 29.4017C42.0332 29.3905 42.1763 29.0324 42.1616 28.6016C42.1469 28.1712 41.9799 27.8309 41.7851 27.8421C41.5923 27.8532 41.4473 28.2114 41.462 28.6418C41.4767 29.0726 41.6456 29.4128 41.8385 29.4017Z" fill="white"/>
<g filter="url(#filter2_d_264_22665)">
<path d="M23.9973 30.2753C24.0582 30.1827 24.0835 30.0228 24.0551 29.9164C24.0266 29.8102 23.955 29.7976 23.8941 29.8902C23.8339 29.9819 23.8079 30.1427 23.8364 30.2489C23.8648 30.3553 23.937 30.3669 23.9973 30.2753Z" fill="#FDABAB"/>
</g>
<g filter="url(#filter3_d_264_22665)">
<path d="M19.67 35.0539C19.7309 34.9614 19.7563 34.8015 19.7278 34.6951C19.6993 34.5888 19.6277 34.5763 19.5669 34.6689C19.5066 34.7605 19.4806 34.9214 19.5091 35.0276C19.5376 35.134 19.6097 35.1456 19.67 35.0539Z" fill="#FDABAB"/>
</g>
<g filter="url(#filter4_d_264_22665)">
<path d="M11.124 39.4361C11.1849 39.3435 11.2103 39.1836 11.1818 39.0772C11.1533 38.9709 11.0817 38.9584 11.0209 39.051C10.9606 39.1426 10.9346 39.3034 10.9631 39.4097C10.9916 39.5161 11.0637 39.5277 11.124 39.4361Z" fill="#FDABAB"/>
</g>
<g filter="url(#filter5_d_264_22665)">
<path d="M12.7676 45.9289C12.8284 45.8364 12.8538 45.6765 12.8253 45.5701C12.7968 45.4638 12.7253 45.4513 12.6644 45.5439C12.6041 45.6355 12.5782 45.7964 12.6066 45.9026C12.6351 46.009 12.7073 46.0206 12.7676 45.9289Z" fill="#FDABAB"/>
</g>
<defs>
<filter id="filter0_f_264_22665" x="100.944" y="-59.2646" width="330.991" height="156.903" filterUnits="userSpaceOnUse" color-interpolation-filters="sRGB">
<feFlood flood-opacity="0" result="BackgroundImageFix"/>
<feBlend mode="normal" in="SourceGraphic" in2="BackgroundImageFix" result="shape"/>
<feGaussianBlur stdDeviation="20" result="effect1_foregroundBlur_264_22665"/>
</filter>
<filter id="filter1_f_264_22665" x="147.785" y="-47.455" width="250.885" height="84.4368" filterUnits="userSpaceOnUse" color-interpolation-filters="sRGB">
<feFlood flood-opacity="0" result="BackgroundImageFix"/>
<feBlend mode="normal" in="SourceGraphic" in2="BackgroundImageFix" result="shape"/>
<feGaussianBlur stdDeviation="15" result="effect1_foregroundBlur_264_22665"/>
</filter>
<filter id="filter2_d_264_22665" x="22.8248" y="28.8281" width="2.24194" height="2.50897" filterUnits="userSpaceOnUse" color-interpolation-filters="sRGB">
<feFlood flood-opacity="0" result="BackgroundImageFix"/>
<feColorMatrix in="SourceAlpha" type="matrix" values="0 0 0 0 0 0 0 0 0 0 0 0 0 0 0 0 0 0 127 0" result="hardAlpha"/>
<feOffset/>
<feGaussianBlur stdDeviation="0.5"/>
<feComposite in2="hardAlpha" operator="out"/>
<feColorMatrix type="matrix" values="0 0 0 0 0.157309 0 0 0 0 0.223702 0 0 0 0 0.920833 0 0 0 1 0"/>
<feBlend mode="normal" in2="BackgroundImageFix" result="effect1_dropShadow_264_22665"/>
<feBlend mode="normal" in="SourceGraphic" in2="effect1_dropShadow_264_22665" result="shape"/>
</filter>
<filter id="filter3_d_264_22665" x="18.4976" y="33.6067" width="2.24194" height="2.50903" filterUnits="userSpaceOnUse" color-interpolation-filters="sRGB">
<feFlood flood-opacity="0" result="BackgroundImageFix"/>
<feColorMatrix in="SourceAlpha" type="matrix" values="0 0 0 0 0 0 0 0 0 0 0 0 0 0 0 0 0 0 127 0" result="hardAlpha"/>
<feOffset/>
<feGaussianBlur stdDeviation="0.5"/>
<feComposite in2="hardAlpha" operator="out"/>
<feColorMatrix type="matrix" values="0 0 0 0 0.157309 0 0 0 0 0.223702 0 0 0 0 0.920833 0 0 0 1 0"/>
<feBlend mode="normal" in2="BackgroundImageFix" result="effect1_dropShadow_264_22665"/>
<feBlend mode="normal" in="SourceGraphic" in2="effect1_dropShadow_264_22665" result="shape"/>
</filter>
<filter id="filter4_d_264_22665" x="9.95154" y="37.9888" width="2.24194" height="2.50903" filterUnits="userSpaceOnUse" color-interpolation-filters="sRGB">
<feFlood flood-opacity="0" result="BackgroundImageFix"/>
<feColorMatrix in="SourceAlpha" type="matrix" values="0 0 0 0 0 0 0 0 0 0 0 0 0 0 0 0 0 0 127 0" result="hardAlpha"/>
<feOffset/>
<feGaussianBlur stdDeviation="0.5"/>
<feComposite in2="hardAlpha" operator="out"/>
<feColorMatrix type="matrix" values="0 0 0 0 0.157309 0 0 0 0 0.223702 0 0 0 0 0.920833 0 0 0 1 0"/>
<feBlend mode="normal" in2="BackgroundImageFix" result="effect1_dropShadow_264_22665"/>
<feBlend mode="normal" in="SourceGraphic" in2="effect1_dropShadow_264_22665" result="shape"/>
</filter>
<filter id="filter5_d_264_22665" x="11.5951" y="44.4817" width="2.24194" height="2.50903" filterUnits="userSpaceOnUse" color-interpolation-filters="sRGB">
<feFlood flood-opacity="0" result="BackgroundImageFix"/>
<feColorMatrix in="SourceAlpha" type="matrix" values="0 0 0 0 0 0 0 0 0 0 0 0 0 0 0 0 0 0 127 0" result="hardAlpha"/>
<feOffset/>
<feGaussianBlur stdDeviation="0.5"/>
<feComposite in2="hardAlpha" operator="out"/>
<feColorMatrix type="matrix" values="0 0 0 0 0.157309 0 0 0 0 0.223702 0 0 0 0 0.920833 0 0 0 1 0"/>
<feBlend mode="normal" in2="BackgroundImageFix" result="effect1_dropShadow_264_22665"/>
<feBlend mode="normal" in="SourceGraphic" in2="effect1_dropShadow_264_22665" result="shape"/>
</filter>
<linearGradient id="paint0_linear_264_22665" x1="274.734" y1="4.75822" x2="273.247" y2="-7.83754" gradientUnits="userSpaceOnUse">
<stop stop-color="#BD91FC"/>
<stop offset="1" stop-color="#D36BFE"/>
</linearGradient>
<linearGradient id="paint1_linear_264_22665" x1="320.862" y1="-0.206803" x2="321.808" y2="6.34425" gradientUnits="userSpaceOnUse">
<stop stop-color="white"/>
<stop offset="1" stop-color="white" stop-opacity="0"/>
</linearGradient>
</defs>
</svg>
