<svg width="16" height="16" viewBox="0 0 16 16" fill="none" xmlns="http://www.w3.org/2000/svg">
<g clip-path="url(#clip0_264_16135)">
<path d="M13.25 5.0625H11.3105L10.0302 3.99562C9.88962 3.87844 9.69912 3.8125 9.5 3.8125H6.5C6.30088 3.8125 6.11038 3.87844 5.96975 3.99562L4.6895 5.0625H2.75C2.33544 5.0625 2 5.34203 2 5.6875V12.5625C2 12.908 2.33544 13.1875 2.75 13.1875H13.25C13.6646 13.1875 14 12.908 14 12.5625V5.6875C14 5.34203 13.6646 5.0625 13.25 5.0625ZM8 11.3125C6.34325 11.3125 5 10.1931 5 8.8125C5 7.43187 6.34325 6.3125 8 6.3125C9.65675 6.3125 11 7.43187 11 8.8125C11 10.1931 9.65675 11.3125 8 11.3125Z" fill="#7F56D9"/>
<path d="M8 10.0625C8.82843 10.0625 9.5 9.50286 9.5 8.8125C9.5 8.12214 8.82843 7.5625 8 7.5625C7.17157 7.5625 6.5 8.12214 6.5 8.8125C6.5 9.50286 7.17157 10.0625 8 10.0625Z" fill="#7F56D9"/>
</g>
<defs>
<clipPath id="clip0_264_16135">
<rect width="12" height="10" fill="white" transform="translate(2 3.5)"/>
</clipPath>
</defs>
</svg>
