<svg width="13" height="13" viewBox="0 0 13 13" fill="none" xmlns="http://www.w3.org/2000/svg">
<path fill-rule="evenodd" clip-rule="evenodd" d="M3.25005 1.30005C3.60903 1.30005 3.90005 1.59106 3.90005 1.95005V2.60005H4.55005C4.90903 2.60005 5.20005 2.89106 5.20005 3.25005C5.20005 3.60903 4.90903 3.90005 4.55005 3.90005H3.90005V4.55005C3.90005 4.90903 3.60903 5.20005 3.25005 5.20005C2.89106 5.20005 2.60005 4.90903 2.60005 4.55005V3.90005H1.95005C1.59106 3.90005 1.30005 3.60903 1.30005 3.25005C1.30005 2.89106 1.59106 2.60005 1.95005 2.60005H2.60005V1.95005C2.60005 1.59106 2.89106 1.30005 3.25005 1.30005ZM3.25005 7.80005C3.60903 7.80005 3.90005 8.09106 3.90005 8.45005V9.10005H4.55005C4.90903 9.10005 5.20005 9.39106 5.20005 9.75005C5.20005 10.109 4.90903 10.4 4.55005 10.4H3.90005V11.05C3.90005 11.409 3.60903 11.7 3.25005 11.7C2.89106 11.7 2.60005 11.409 2.60005 11.05V10.4H1.95005C1.59106 10.4 1.30005 10.109 1.30005 9.75005C1.30005 9.39106 1.59106 9.10005 1.95005 9.10005H2.60005V8.45005C2.60005 8.09106 2.89106 7.80005 3.25005 7.80005Z" fill="#F9FAFB"/>
<path fill-rule="evenodd" clip-rule="evenodd" d="M7.80001 1.30005C8.09494 1.30005 8.3529 1.49861 8.42837 1.78372L9.19486 4.67935L11.3748 5.93703C11.576 6.05311 11.7 6.26775 11.7 6.50005C11.7 6.73235 11.576 6.94699 11.3748 7.06307L9.19486 8.32074L8.42837 11.2164C8.3529 11.5015 8.09494 11.7 7.80001 11.7C7.50509 11.7 7.24713 11.5015 7.17166 11.2164L6.40516 8.32074L4.22523 7.06307C4.02402 6.94698 3.90005 6.73234 3.90005 6.50005C3.90005 6.26775 4.02402 6.05311 4.22523 5.93703L6.40516 4.67936L7.17166 1.78372C7.24713 1.49861 7.50509 1.30005 7.80001 1.30005Z" fill="#F9FAFB"/>
</svg>
