<svg width="16" height="15" viewBox="0 0 16 15" fill="none" xmlns="http://www.w3.org/2000/svg">
<path d="M10.4 4.5C10.4 5.74264 9.32553 6.75 8.00005 6.75C6.67457 6.75 5.60005 5.74264 5.60005 4.5C5.60005 3.25736 6.67457 2.25 8.00005 2.25C9.32553 2.25 10.4 3.25736 10.4 4.5Z" fill="#7F56D9"/>
<path d="M14.4 6C14.4 6.82843 13.6837 7.5 12.8 7.5C11.9164 7.5 11.2 6.82843 11.2 6C11.2 5.17157 11.9164 4.5 12.8 4.5C13.6837 4.5 14.4 5.17157 14.4 6Z" fill="#7F56D9"/>
<path d="M11.2 11.25C11.2 9.59315 9.76736 8.25 8.00005 8.25C6.23274 8.25 4.80005 9.59315 4.80005 11.25V13.5H11.2V11.25Z" fill="#7F56D9"/>
<path d="M4.80005 6C4.80005 6.82843 4.0837 7.5 3.20005 7.5C2.31639 7.5 1.60005 6.82843 1.60005 6C1.60005 5.17157 2.31639 4.5 3.20005 4.5C4.0837 4.5 4.80005 5.17157 4.80005 6Z" fill="#7F56D9"/>
<path d="M12.8 13.5V11.25C12.8 10.4594 12.5826 9.7164 12.2006 9.07074C12.3922 9.02456 12.5931 9 12.8 9C14.1255 9 15.2 10.0074 15.2 11.25V13.5H12.8Z" fill="#7F56D9"/>
<path d="M3.79946 9.07074C3.41753 9.7164 3.20005 10.4594 3.20005 11.25V13.5H0.800049V11.25C0.800049 10.0074 1.87457 9 3.20005 9C3.40702 9 3.60786 9.02456 3.79946 9.07074Z" fill="#7F56D9"/>
</svg>
