<svg width="92" height="100" viewBox="0 0 92 100" fill="none" xmlns="http://www.w3.org/2000/svg">
<path d="M79.4475 79.6257L7.67578 28.0348C6.60778 27.2671 11.236 19.9528 12.3017 20.721L84.0734 72.3119C85.141 73.0772 80.5132 80.3939 79.4475 79.6257Z" fill="url(#paint0_linear_2_7645)"/>
<path d="M8.53811 26.5432L80.3649 78.1758L82.0008 75.5895L10.1739 23.9569L8.53811 26.5432Z" fill="url(#paint1_linear_2_7645)"/>
<path d="M3.26433 17.2346L2.50107 18.4414L1.25799 20.4068C1.13185 20.625 1.03892 20.8631 0.982691 21.1121C0.837253 21.6149 0.845819 22.1533 1.00714 22.6487C1.16845 23.1441 1.47407 23.5706 1.87936 23.8658L7.62092 27.9931L8.53795 26.5432L10.1738 23.9569L12.2468 20.6793L6.50526 16.552C6.25174 16.3694 5.96675 16.2422 5.66658 16.1777C5.36642 16.1132 5.05697 16.1126 4.75595 16.176C4.45493 16.2394 4.16825 16.3656 3.9123 16.5472C3.65635 16.7289 3.43616 16.9624 3.26433 17.2346ZM82.0006 75.5895L80.3648 78.1758L79.4477 79.6257L85.4793 83.9636C85.8879 84.2535 86.3734 84.3957 86.8646 84.3694C87.3559 84.3431 87.8273 84.1497 88.21 83.8175C88.3961 83.6615 88.5812 83.5006 88.7202 83.281L89.9633 81.3156L90.7265 80.1088C90.8988 79.837 91.0194 79.5318 91.0814 79.2107C91.1434 78.8897 91.1456 78.559 91.0879 78.2377C91.0302 77.9165 90.9137 77.6108 90.745 77.3384C90.5764 77.0659 90.359 76.8319 90.1052 76.6498L84.0741 72.3143L82.0006 75.5895Z" fill="#E1E8ED"/>
<path d="M10.174 23.9568L2.50132 18.4413L1.25823 20.4067C1.1321 20.625 1.03917 20.8631 0.982938 21.1121L8.54092 26.5452L10.174 23.9568ZM80.365 78.1758L88.2125 83.817C88.3986 83.661 88.5838 83.5001 88.7227 83.2805L89.9658 81.3151L82.0008 75.5895L80.365 78.1758Z" fill="#F5F8FA"/>
<defs>
<linearGradient id="paint0_linear_2_7645" x1="12.8055" y1="57.1386" x2="79.3004" y2="45.1936" gradientUnits="userSpaceOnUse">
<stop stop-color="#262641"/>
<stop offset="1"/>
</linearGradient>
<linearGradient id="paint1_linear_2_7645" x1="14.1219" y1="57.6269" x2="76.7529" y2="46.376" gradientUnits="userSpaceOnUse">
<stop stop-color="#6D6D6D"/>
<stop offset="1" stop-color="#66757F" stop-opacity="0"/>
</linearGradient>
</defs>
</svg>
