<svg width="17" height="15" viewBox="0 0 17 15" fill="none" xmlns="http://www.w3.org/2000/svg">
<g clip-path="url(#clip0_278_37806)">
<g filter="url(#filter0_d_278_37806)">
<path d="M4 4.00026C4 2.89568 4.89544 2.00024 6.00002 2.00024H8.49991V6.00028H6.00002C4.89544 6.00028 4 5.10484 4 4.00026V4.00026Z" fill="url(#paint0_linear_278_37806)"/>
<path d="M4 8.00002C4 6.89544 4.89544 6 6.00002 6H8.49991V10H6.00002C4.89544 10 4 9.1046 4 8.00002V8.00002Z" fill="url(#paint1_linear_278_37806)"/>
<path d="M13 4.00002C13 2.89544 12.1046 2 11 2H8.50009V6.00004H11C12.1046 6.00004 13 5.1046 13 4.00002V4.00002Z" fill="url(#paint2_linear_278_37806)"/>
<ellipse cx="10.7497" cy="8.00002" rx="2.24996" ry="2.00002" fill="url(#paint3_linear_278_37806)"/>
<path d="M8.49991 12C8.49991 13.1046 7.49257 14 6.24996 14C5.00734 14 4 13.1046 4 12C4 10.8954 5.00734 10 6.24996 10C7.49257 10 8.49991 10.8954 8.49991 12Z" fill="url(#paint4_linear_278_37806)"/>
<path d="M6.24996 10C7.49257 10 8.49991 10.8954 8.49991 12V10H6.24996Z" fill="url(#paint5_linear_278_37806)"/>
</g>
</g>
<defs>
<filter id="filter0_d_278_37806" x="-116" y="-78" width="249" height="252" filterUnits="userSpaceOnUse" color-interpolation-filters="sRGB">
<feFlood flood-opacity="0" result="BackgroundImageFix"/>
<feColorMatrix in="SourceAlpha" type="matrix" values="0 0 0 0 0 0 0 0 0 0 0 0 0 0 0 0 0 0 127 0" result="hardAlpha"/>
<feOffset dy="40"/>
<feGaussianBlur stdDeviation="60"/>
<feColorMatrix type="matrix" values="0 0 0 0 0 0 0 0 0 0 0 0 0 0 0 0 0 0 1 0"/>
<feBlend mode="soft-light" in2="BackgroundImageFix" result="effect1_dropShadow_278_37806"/>
<feBlend mode="normal" in="SourceGraphic" in2="effect1_dropShadow_278_37806" result="shape"/>
</filter>
<linearGradient id="paint0_linear_278_37806" x1="8.16158" y1="2.21077" x2="4.71244" y2="5.81984" gradientUnits="userSpaceOnUse">
<stop stop-color="#FF7262"/>
<stop offset="1" stop-color="#F31808"/>
</linearGradient>
<linearGradient id="paint1_linear_278_37806" x1="8.16158" y1="6.21053" x2="4.71244" y2="9.81959" gradientUnits="userSpaceOnUse">
<stop stop-color="#A33FFF"/>
<stop offset="1" stop-color="#6A28FF"/>
</linearGradient>
<linearGradient id="paint2_linear_278_37806" x1="12.5263" y1="2.73685" x2="8.93322" y2="6.42232" gradientUnits="userSpaceOnUse">
<stop stop-color="#FFA59B"/>
<stop offset="1" stop-color="#FE5B49"/>
</linearGradient>
<linearGradient id="paint3_linear_278_37806" x1="12.4076" y1="6.69174" x2="9.2949" y2="9.7322" gradientUnits="userSpaceOnUse">
<stop stop-color="#57CEFF"/>
<stop offset="1" stop-color="#09B2FE"/>
</linearGradient>
<linearGradient id="paint4_linear_278_37806" x1="8.49991" y1="10" x2="5.04306" y2="13.8215" gradientUnits="userSpaceOnUse">
<stop stop-color="white"/>
<stop offset="1" stop-color="#01C939"/>
</linearGradient>
<linearGradient id="paint5_linear_278_37806" x1="8.49991" y1="10" x2="5.04306" y2="13.8215" gradientUnits="userSpaceOnUse">
<stop stop-color="white"/>
<stop offset="1" stop-color="#01C939"/>
</linearGradient>
<clipPath id="clip0_278_37806">
<rect width="17" height="15" fill="white"/>
</clipPath>
</defs>
</svg>
