<svg width="32" height="33" viewBox="0 0 32 33" fill="none" xmlns="http://www.w3.org/2000/svg">
<path d="M28 25.1667C28 27.008 26.508 28.5 24.6667 28.5H7.33333C5.49267 28.5 4 27.008 4 25.1667V7.83333C4 5.992 5.49267 4.5 7.33333 4.5H24.6667C26.508 4.5 28 5.992 28 7.83333V25.1667Z" fill="#FF4081"/>
<path d="M22.0408 18.0154C21.5722 17.8681 21.0648 18.1321 20.9168 18.6121C20.3675 20.3841 19.3728 22.2247 18.9215 22.3254C18.5835 22.3254 18.0975 22.0387 17.6162 21.3654C18.7322 18.9694 19.3168 15.9614 19.3168 13.9534C19.3168 8.34475 17.9008 7.16675 16.7115 7.16675C14.2068 7.16675 14.1782 13.7747 14.1782 13.8414C14.1782 14.6187 14.2062 15.3401 14.2588 16.0121C13.9135 15.8861 13.5168 15.7994 13.0788 15.7994C10.5055 15.7994 9.3335 18.3387 9.3335 20.6974C9.3335 22.9201 10.5808 25.1667 13.3642 25.1667C14.6788 25.1667 15.7868 24.3061 16.6808 23.0194C17.4728 23.8427 18.3022 24.1501 18.9208 24.1501C20.8695 24.1501 22.1595 20.6614 22.6248 19.1594C22.7735 18.6801 22.5115 18.1681 22.0408 18.0154ZM13.3655 23.3427C11.3448 23.3427 11.1255 21.4927 11.1255 20.6967C11.1255 20.5714 11.1482 17.6227 13.0802 17.6227C13.8428 17.6227 14.4282 18.2127 14.4282 18.2127C14.4715 18.2594 14.5195 18.3001 14.5695 18.3354C14.8195 19.6047 15.1722 20.6194 15.5802 21.4234C14.9108 22.5821 14.1355 23.3427 13.3655 23.3427ZM16.6008 19.1174C16.2282 17.8307 15.9702 16.1034 15.9702 13.8414C15.9702 11.7574 16.4142 9.79608 16.7828 9.12608C17.0655 9.55541 17.5262 10.8927 17.5262 13.9534C17.5262 15.5774 17.1668 17.4641 16.6008 19.1174Z" fill="white"/>
</svg>
