<svg width="32" height="33" viewBox="0 0 32 33" fill="none" xmlns="http://www.w3.org/2000/svg">
<path d="M28 25.1667C28 27.008 26.508 28.5 24.6667 28.5H7.33333C5.49267 28.5 4 27.008 4 25.1667V7.83333C4 5.992 5.49267 4.5 7.33333 4.5H24.6667C26.508 4.5 28 5.992 28 7.83333V25.1667Z" fill="#0078D4"/>
<path opacity="0.05" d="M20.0002 25.1666V18.4339C20.0002 17.3079 19.4542 16.6353 18.5388 16.6353C17.9955 16.6353 17.5962 16.9413 17.3528 17.5446C17.3415 17.5873 17.3255 17.7613 17.3322 18.2873L17.3335 25.1666H12.6668V12.4999H17.3335V13.2073C18.0148 12.7373 18.8502 12.4999 19.8255 12.4999C22.8568 12.4999 24.6662 14.5619 24.6662 18.0159L24.6668 25.1666H20.0002ZM7.3335 25.1666V12.4999H9.63816C8.30283 12.4999 7.3335 11.5186 7.3335 10.1659C7.3335 8.81459 8.31883 7.83325 9.67616 7.83325C11.0175 7.83325 11.9728 8.78725 12.0002 10.1526C12.0002 11.5153 11.0142 12.4999 9.65683 12.4999H12.0002V25.1666H7.3335Z" fill="black"/>
<path opacity="0.07" d="M20.3332 24.8334V18.4341C20.3332 17.1187 19.6458 16.3021 18.5385 16.3021C17.6752 16.3021 17.2485 16.9101 17.0432 17.4201C16.9885 17.5527 16.9958 18.0794 16.9985 18.3041L16.9998 24.8334H12.9998V12.8334H16.9998V13.9254C17.5298 13.3767 18.3832 12.8334 19.8252 12.8334C22.6472 12.8334 24.3325 14.7707 24.3325 18.0161L24.3332 24.8334H20.3332ZM7.6665 24.8334V12.8334H11.6665V24.8334H7.6665ZM9.63784 12.1667C8.49584 12.1667 7.6665 11.3254 7.6665 10.1661C7.6665 9.00741 8.51184 8.16675 9.67584 8.16675C10.8252 8.16675 11.6432 8.98608 11.6665 10.1594C11.6665 11.3254 10.8212 12.1667 9.6565 12.1667H9.63784Z" fill="black"/>
<path d="M8 13.1667H11.3333V24.5H8V13.1667ZM9.65667 11.8333H9.638C8.64333 11.8333 8 11.092 8 10.166C8 9.22 8.66333 8.5 9.676 8.5C10.69 8.5 11.3147 9.22 11.3333 10.166C11.3333 11.0913 10.69 11.8333 9.65667 11.8333ZM24 24.5H20.6667V18.434C20.6667 16.9687 19.85 15.9687 18.5387 15.9687C17.538 15.9687 16.9967 16.6433 16.734 17.2953C16.638 17.5287 16.6667 18.174 16.6667 18.5V24.5H13.3333V13.1667H16.6667V14.9107C17.1473 14.1667 17.9 13.1667 19.8253 13.1667C22.2107 13.1667 23.9993 14.6667 23.9993 18.016L24 24.5Z" fill="white"/>
</svg>
