<svg width="13" height="13" viewBox="0 0 13 13" fill="none" xmlns="http://www.w3.org/2000/svg">
<path d="M11.3409 7.08137C11.5611 6.97127 11.7002 6.7462 11.7002 6.49999C11.7002 6.25379 11.5611 6.02872 11.3409 5.91862L2.24088 1.36862C2.01033 1.25334 1.73344 1.28519 1.53508 1.44981C1.33673 1.61443 1.25439 1.88071 1.3252 2.12856L2.25377 5.37856C2.3335 5.6576 2.58855 5.84999 2.87877 5.84999H5.8502C6.20918 5.84999 6.5002 6.141 6.5002 6.49999C6.5002 6.85897 6.20918 7.14999 5.8502 7.14999H2.87877C2.58856 7.14999 2.33351 7.34237 2.25378 7.62142L1.3252 10.8714C1.25439 11.1193 1.33673 11.3856 1.53508 11.5502C1.73344 11.7148 2.01033 11.7467 2.24088 11.6314L11.3409 7.08137Z" fill="#F9FAFB"/>
</svg>
